<?xml version="1.0" encoding="utf-8"?>
<!-- Generator: Adobe Illustrator 24.0.1, SVG Export Plug-In . SVG Version: 6.00 Build 0)  -->
<svg version="1.1" id="Livello_1" xmlns="http://www.w3.org/2000/svg" xmlns:xlink="http://www.w3.org/1999/xlink" x="0px" y="0px"
	 viewBox="0 0 768.1 304.4" style="enable-background:new 0 0 768.1 304.4;" xml:space="preserve">
<style type="text/css">
	.st0{fill:#1D1D1B;}
</style>
<title>LOGO DR GIMO</title>
<path class="st0" d="M85.8,90c21.6-0.3,46-3,65.5,8.5c4.3,2.5,8.2,5.8,10.6,10.1c3.8,6.8,3.2,15.3-0.1,22.3c-3.3,7-9.1,12.5-15.4,17
	c-17.4,12.4-39.1,17.6-60.4,19.1c-10.6,0.8-21.2,0.9-31.9,0.8c-5.3-0.1-10.6-0.2-16-0.4c-5-0.1-10.7,0.4-15.6-0.5
	c2.2-1.5,5.3-1.8,7.8-2.9c2.8-1.3,5.4-2.9,7.9-4.8c5-3.6,9.4-7.9,13.3-12.7c7.8-9.4,13.9-20.1,20.9-30.2c2.3-3.3,4.8-6.6,8.4-8.5
	c6.9-3.7,15.6-1,22.9-3.8c-12.8,18.8-25.7,37.5-38.5,56.3c12.7,1.6,25.9,0,37.7-5.2s22-13.8,28.7-24.8c2.5-4.2,4.6-9,3.9-13.9
	c-1.1-7.1-7.7-12.1-14.4-14.7C106,95.9,89,98,73,101.2c-8.7,1.7-17.5,3.7-25.2,8.1c-7.7,4.4-14.2,11.5-16,20.2c-3.5-1-6.5-3.6-7.9-7
	c-1.4-3.4-1.1-7.4,0.7-10.5c2.1-3.7,6.1-6,9.9-7.9c10.8-5.4,22.2-9.2,34.1-11.8C74.3,91.4,80.1,90.7,85.8,90"/>
<path class="st0" d="M413.7,92.1c3.7-0.1,7.4-0.1,11,0.1c1.8,0.1,3.7,0.2,5.5,0.4c1.4,0.2,2.8,0.4,4.2,0.6
	c4.5,0.5,10.1,1.6,12.3,6.1c1.9,3.9,0.1,8.9-3.5,11.4c-3.6,2.4-8.4,2.5-12.4,0.8c-5.9-2.4-10.1-7.9-15.9-10.4
	c-6.3-2.7-13.6-1.7-20.1,0.3c-13.3,4-25.4,11.9-34.5,22.3c-3.6,4.2-6.9,9-7.6,14.4c-0.5,3.6,0.5,7.7,3.6,9.6
	c2.7,1.7,6.2,1.1,9.3,0.3c22.2-5.6,41.4-20.6,64-24.3c-9.4,23.4-29,42-51.8,52.7c-22.9,10.7-48.8,13.8-73.9,11.6
	c-10.5-0.9-21.2-2.8-30.2-8.2c-5.7-3.4-11.1-9.6-9.4-16.1c0.9-3.3,3.4-5.9,6.1-7.9c7.5-5.7,17.2-8.5,26.6-7.8
	c-5.1,3.2-10.3,7.9-10.1,13.8c0.2,6.4,6.4,10.9,12.5,13c9.5,3.2,19.8,2.9,29.8,1.8c13.3-1.5,26.6-4.5,38.8-10
	c7.6-3.4,15.4-8.4,18.2-16.3c-15.3,4.1-30.7,8.1-46.5,8.3c-5.3,0.1-11.3-0.7-14.5-4.9c-2.8-3.7-2.4-8.9-0.8-13.2
	c2.7-7.2,8.3-12.8,14.2-17.7c4.9-4,10-7.7,15.4-11c5.4-3.3,11.1-6.2,16.9-8.8c5.8-2.5,11.8-4.6,17.9-6.3c6.2-1.7,12.6-2.9,19-3.8
	c0.8-0.1,1.5-0.2,2.3-0.3C411.1,92.5,412.4,92.3,413.7,92.1"/>
<path class="st0" d="M476.7,94.7c5.3-0.2,8.6,0.3,11.6,2.1v0.5c-1.6,9.2-20.9,14.5-30,9.5v-2.6C462.7,97.8,469.1,98.1,476.7,94.7"/>
<path class="st0" d="M711.8,95.7c6-0.1,11.5,4.1,14.2,9.3c0.5,1,1,2.2,1,3.3c0,0.6-0.2,1.2-0.6,1.6c-0.6,0.5-1.5,0.2-2.3-0.1
	c-5.2-1.9-10.3-3.7-15.5-5.6c-1.2-0.4-2.6-1.1-2.7-2.4c0-0.6,0.3-1.2,0.6-1.7C707.9,98.2,709.8,97.1,711.8,95.7"/>
<path class="st0" d="M243.2,109.1c2.3-0.2,4.7,0,6.9,0.5c-2,2.3-8.7,11.9-11.7,12.4l-17.3,2.6c-16.3,4.1-25.5,10.5-33.1,23.1
	c-3.5,5.7-6,10-3.2,16.8c-13.8-0.2-24.6,3.3-36.7,4.7c6.5-13.4,22.9-28.4,26.2-42c-1.2-0.9-2.5-1.8-3.7-2.6v-0.5
	c12.8-3.3,25.5-6.7,38.3-10c-0.7,1.7-1,2.3-0.6,4.2C220.5,118.4,231.5,109.9,243.2,109.1"/>
<path class="st0" d="M556.7,114.3c0.1,0,0.2-0.1,0.4-0.1c5-1.3,9.2-1.9,14,0.3s6.8,7.6,13.2,6.4c8.2-1.5,16.1-4.5,24.3-6
	c4.3-0.8,8.6-1.3,13-0.9c3.2,0.2,9.7,0.3,11.2,3.9c1.9,4.8-1.2,11-4,14.8c-3.1,4.3-7.2,7.8-10.5,12c-1.6,1.9-7.6,8.4-6.7,11.3
	c1.3,4.4,15.8,1.6,17.5-1.9c-2.1,4.5-9,7.4-13.1,9.4c-6.6,3.1-14,5.8-21.4,6c-3.8,0.1-8.3-0.5-11-3.4c-2.9-3.1-0.6-6.9,1.2-10.2
	c4.3-7.9,10.5-14.7,16.4-21.4c2.9-3.4,6-6.7,8.6-10.3c-3.2-3.9-16.7-0.8-21.5,1c-16.8,6.4-28.3,26.6-37.3,40.9H527
	c0.2-0.5,0.4-1.1,0.5-1.6c4.1-4,26.3-38,25.7-42c-34.3-4.6-39.5,29-55.6,44.6h-25.2c0.3-0.3,0.7-0.7,1-1.1
	c3.2-7.8,24.5-32.9,22.6-39.4c-1.1-2.2-2.6-2.6-4.2-4.2c13.3-1.9,26.5-3.8,39.8-5.8c-0.3,1.2-0.7,2.5-1,3.7h1
	C541.1,120.4,547.6,116.8,556.7,114.3"/>
<path class="st0" d="M473,114.6c0,0,1.6,0,1.6,0c2.5,0-2.7,6.5-3.4,7.4c-2.2,3.1-4.5,6.1-6.7,9.2c-4.4,6-8.7,12.1-12.1,18.7
	c-1.1,2.1-4.3,8.2-1.8,10.4c0.6,0.6,1.6,0.6,2.4,0.6c7.8-0.3,15-4.2,21.8-8c-7,7.9-19.6,11.8-29.5,14.7c-5.3,1.5-10.9,2.7-16.4,2
	c-3.1-0.4-6.5-1.6-7.8-4.5c-1.1-2.5,0-5.4,1.2-7.9c4.8-9.4,13.2-16.7,18.1-26.1c1.7-3.3,3-7.2,1.5-10.6c0-0.5,14.4-2.8,15.8-3
	C462.9,116.5,468,115.5,473,114.6"/>
<path class="st0" d="M726.6,115.5c-9.1-3.3-19.1-4-29-2.8c-19.5,2.6-37.9,12.6-51.2,27c-3.4,3.6-6.4,7.5-9.1,11.7
	c-1.4,2.2-2.8,4.8-2.1,7.3c0.5,1.8,2,3.2,3.5,4.3c7.8,5.9,17.7,8.5,27.5,8.6c9.8,0.1,19.4-2.2,28.6-5.4c13.2-4.7,26-11.5,35.9-21.4
	c3.4-3.4,6.5-7.3,7.7-12C740.4,124.3,734,118.2,726.6,115.5 M685.8,159c-4.4,2.4-19.8,7.6-24.3,3.3s1.3-9.9,4.3-14
	c4.7-6.5,9.5-13.1,15.5-18.6c3-2.7,6.3-5.3,10.1-6.7c4-1.4,8.4-1.5,12.6-1.3c3.1,0.1,8.3-0.2,10.5,2.4c1.2,1.5,0.8,3.7,0.2,5.4
	c-2.7,7.2-9.6,13.2-15.1,18.3C695.4,151.8,690.8,156.2,685.8,159"/>
<g>
	<path d="M24.4,203.5h4.1v28.2h-4.1V203.5z"/>
	<path d="M34.2,203.5h3.9v23c0,0.9,0.5,1.4,1.5,1.4h1.4v3.8h-1.7c-1.4,0-2.6-0.4-3.5-1.1c-1-0.7-1.5-2-1.5-3.8V203.5z"/>
	<path d="M68.2,228.5c-0.8,1-1.8,1.8-3,2.4c-1.1,0.7-2.5,1-4,1c-2.3,0-4.3-0.8-6-2.4c-1.8-1.6-2.7-4.2-2.8-7.8c0-3.6,1-6.3,2.8-7.9
		c1.7-1.6,3.7-2.4,6-2.4c1.5,0,2.8,0.3,4,1c1.1,0.6,2.1,1.5,3,2.5l-2.9,2.6c-1-1.4-2.3-2.1-3.9-2.1c-3.3-0.1-5,2-5.1,6.3
		c0,4.2,1.7,6.3,5.1,6.2c1.6,0,3-0.7,3.9-2.1L68.2,228.5z"/>
	<path d="M74.4,223.2c0,1.6,0.4,2.8,1.3,3.7c0.8,0.8,1.9,1.3,3.3,1.3c1.6,0,3-0.7,4.3-2l2.8,2.5c-2,2.2-4.3,3.3-7,3.2
		c-1,0-2-0.2-3-0.5c-0.5-0.2-1-0.4-1.4-0.7c-0.5-0.2-0.9-0.5-1.4-0.9c-0.8-0.7-1.5-1.8-2-3.1c-0.6-1.3-0.8-3-0.8-5
		c0-2,0.2-3.6,0.7-4.9c0.5-1.3,1.1-2.4,1.9-3.2c0.8-0.8,1.6-1.4,2.6-1.7c0.9-0.3,1.9-0.5,2.8-0.5c2.2,0,4.1,0.8,5.6,2.3
		c1.6,1.5,2.4,3.6,2.4,6.2v3.3H74.4z M82.6,219.9c0-1.6-0.5-2.8-1.2-3.6c-0.8-0.8-1.7-1.1-2.9-1.1c-1.2,0-2.1,0.4-2.9,1.1
		c-0.7,0.8-1.1,2-1.2,3.6H82.6z"/>
	<path d="M91.2,211.6h3.9v2.1h0.1c1.3-1.6,3-2.4,5-2.4c1.6,0,3.1,0.6,4.4,1.8c1.3,1.2,2,2.9,2.1,5.2v13.3h-3.9v-12
		c0-1.4-0.4-2.5-1.1-3.2c-0.7-0.7-1.6-1.1-2.8-1.1c-1.1,0-2,0.4-2.8,1.1c-0.7,0.7-1.1,1.8-1.1,3.2v12h-3.9V211.6z"/>
	<path d="M112.7,205.5h3.9v6.1h2.8v3.1h-2.8v11.7c0,1,0.4,1.5,1.4,1.5h1.5v3.8h-2c-1.4,0-2.5-0.4-3.4-1.3c-0.9-0.8-1.3-2-1.3-3.6
		v-12h-2v-3.1h2V205.5z"/>
	<path d="M123.5,211.6h3.9v2.1h0.1c1.3-1.6,3-2.4,5.1-2.4c1.6,0,2.9,0.5,4.1,1.5l-2.8,3.5c-0.8-0.7-1.7-1-2.6-1c-1,0-1.9,0.3-2.6,1
		c-0.8,0.7-1.2,1.7-1.2,3.2v12.1h-3.9V211.6z"/>
	<path d="M137.2,221.6c0-2.1,0.2-3.7,0.5-4.9c0.3-1.1,0.9-2,1.6-2.8c0.5-0.7,1.3-1.3,2.2-1.8c0.9-0.5,2.2-0.8,3.6-0.8
		c1.5,0,2.8,0.3,3.7,0.8c0.9,0.5,1.7,1.1,2.2,1.8c0.8,0.8,1.3,1.7,1.6,2.8c0.3,1.1,0.5,2.8,0.5,4.9s-0.2,3.7-0.5,4.8
		c-0.3,1.1-0.9,2.1-1.6,2.9c-0.2,0.3-0.6,0.6-0.9,0.9c-0.3,0.3-0.7,0.6-1.3,0.8c-0.9,0.6-2.2,0.8-3.7,0.9c-1.5,0-2.7-0.3-3.6-0.9
		c-1-0.5-1.7-1.1-2.2-1.7c-0.7-0.8-1.3-1.8-1.6-2.9C137.4,225.4,137.2,223.8,137.2,221.6z M149.3,221.7c0-1.4-0.1-2.5-0.2-3.1
		c-0.1-0.6-0.4-1.2-0.8-1.7c-0.3-0.5-0.7-0.8-1.3-1.1c-0.5-0.3-1.2-0.4-1.9-0.4c-0.7,0-1.3,0.1-1.8,0.4c-0.5,0.3-1,0.6-1.3,1.1
		c-0.3,0.5-0.6,1-0.7,1.7c-0.2,0.7-0.2,1.7-0.2,3.1c0,1.4,0.1,2.4,0.2,3.1c0.1,0.7,0.4,1.2,0.7,1.7c0.3,0.4,0.8,0.7,1.3,1
		c0.6,0.3,1.2,0.4,1.8,0.4c0.7,0,1.3-0.1,1.9-0.4c0.6-0.3,1-0.6,1.3-1c0.4-0.5,0.6-1.1,0.8-1.7C149.2,224.1,149.3,223,149.3,221.7z"
		/>
	<path d="M170.4,223.2c0,1.6,0.4,2.8,1.3,3.7c0.8,0.8,1.9,1.3,3.3,1.3c1.6,0,3-0.7,4.3-2l2.8,2.5c-2,2.2-4.3,3.3-7,3.2
		c-1,0-2-0.2-3-0.5c-0.5-0.2-1-0.4-1.4-0.7c-0.5-0.2-0.9-0.5-1.4-0.9c-0.8-0.7-1.5-1.8-2-3.1c-0.6-1.3-0.8-3-0.8-5
		c0-2,0.2-3.6,0.7-4.9c0.5-1.3,1.1-2.4,1.9-3.2c0.8-0.8,1.6-1.4,2.6-1.7c0.9-0.3,1.9-0.5,2.8-0.5c2.2,0,4.1,0.8,5.6,2.3
		c1.6,1.5,2.4,3.6,2.4,6.2v3.3H170.4z M178.6,219.9c0-1.6-0.5-2.8-1.2-3.6c-0.8-0.8-1.7-1.1-2.9-1.1c-1.2,0-2.1,0.4-2.9,1.1
		c-0.7,0.8-1.1,2-1.2,3.6H178.6z"/>
	<path d="M187.8,225.6c1.6,1.7,3.6,2.6,6.2,2.6c1.1,0,2-0.2,2.8-0.7c0.7-0.5,1.1-1.1,1.1-1.9c0-0.7-0.2-1.2-0.6-1.5
		c-0.4-0.3-1-0.5-1.7-0.5l-3.4-0.3c-1.6-0.2-3-0.7-4-1.7c-1.1-1-1.6-2.3-1.6-4c0-2.1,0.7-3.6,2.1-4.6c1.3-1,3.1-1.5,5.1-1.5
		c0.9,0,1.7,0.1,2.4,0.2c0.7,0.1,1.4,0.3,2,0.5c1.2,0.5,2.3,1.2,3.2,2l-2.4,2.9c-0.8-0.6-1.5-1-2.4-1.4c-0.8-0.3-1.8-0.5-2.9-0.5
		c-1.2,0-2.1,0.2-2.6,0.7c-0.5,0.5-0.8,1-0.8,1.7c0,0.5,0.2,0.8,0.6,1.2c0.4,0.4,1,0.6,2,0.7l3.2,0.3c2,0.2,3.5,0.8,4.4,1.9
		c0.8,1.1,1.3,2.5,1.3,4.1c0,1.9-0.8,3.4-2.3,4.5c-1.5,1.1-3.4,1.6-5.7,1.7c-3.2,0-6-1.2-8.6-3.6L187.8,225.6z"/>
	<path d="M206.4,205.5h3.9v6.1h2.8v3.1h-2.8v11.7c0,1,0.4,1.5,1.4,1.5h1.5v3.8h-2c-1.4,0-2.5-0.4-3.4-1.3c-0.9-0.8-1.3-2-1.3-3.6
		v-12h-2v-3.1h2V205.5z"/>
	<path d="M220.1,223.2c0,1.6,0.4,2.8,1.3,3.7c0.8,0.8,1.9,1.3,3.3,1.3c1.6,0,3-0.7,4.3-2l2.8,2.5c-2,2.2-4.3,3.3-7,3.2
		c-1,0-2-0.2-3-0.5c-0.5-0.2-1-0.4-1.4-0.7c-0.5-0.2-0.9-0.5-1.4-0.9c-0.8-0.7-1.5-1.8-2-3.1c-0.6-1.3-0.8-3-0.8-5
		c0-2,0.2-3.6,0.7-4.9c0.5-1.3,1.1-2.4,1.9-3.2c0.8-0.8,1.6-1.4,2.6-1.7c0.9-0.3,1.9-0.5,2.8-0.5c2.2,0,4.1,0.8,5.6,2.3
		c1.6,1.5,2.4,3.6,2.4,6.2v3.3H220.1z M228.3,219.9c0-1.6-0.5-2.8-1.2-3.6c-0.8-0.8-1.7-1.1-2.9-1.1c-1.2,0-2.1,0.4-2.9,1.1
		c-0.7,0.8-1.1,2-1.2,3.6H228.3z"/>
	<path d="M237.2,205.5h3.9v6.1h2.8v3.1h-2.8v11.7c0,1,0.4,1.5,1.4,1.5h1.5v3.8h-2c-1.4,0-2.5-0.4-3.4-1.3c-0.9-0.8-1.3-2-1.3-3.6
		v-12h-2v-3.1h2V205.5z"/>
	<path d="M248.1,203.5h3.9v4h-3.9V203.5z M248.1,211.6h3.9v20h-3.9V211.6z"/>
	<path d="M271.7,228.5c-0.8,1-1.8,1.8-3,2.4c-1.1,0.7-2.5,1-4,1c-2.3,0-4.3-0.8-6-2.4c-1.8-1.6-2.7-4.2-2.8-7.8c0-3.6,1-6.3,2.8-7.9
		c1.7-1.6,3.7-2.4,6-2.4c1.5,0,2.8,0.3,4,1c1.1,0.6,2.1,1.5,3,2.5l-2.9,2.6c-1-1.4-2.3-2.1-3.9-2.1c-3.3-0.1-5,2-5.1,6.3
		c0,4.2,1.7,6.3,5.1,6.2c1.6,0,3-0.7,3.9-2.1L271.7,228.5z"/>
	<path d="M274,221.6c0-2.1,0.2-3.7,0.5-4.9c0.3-1.1,0.9-2,1.6-2.8c0.5-0.7,1.3-1.3,2.2-1.8c0.9-0.5,2.2-0.8,3.6-0.8
		c1.5,0,2.8,0.3,3.7,0.8c0.9,0.5,1.7,1.1,2.2,1.8c0.8,0.8,1.3,1.7,1.6,2.8c0.3,1.1,0.5,2.8,0.5,4.9s-0.2,3.7-0.5,4.8
		c-0.3,1.1-0.9,2.1-1.6,2.9c-0.2,0.3-0.6,0.6-0.9,0.9c-0.3,0.3-0.7,0.6-1.3,0.8c-0.9,0.6-2.2,0.8-3.7,0.9c-1.5,0-2.7-0.3-3.6-0.9
		c-1-0.5-1.7-1.1-2.2-1.7c-0.7-0.8-1.3-1.8-1.6-2.9C274.2,225.4,274,223.8,274,221.6z M286.1,221.7c0-1.4-0.1-2.5-0.2-3.1
		c-0.1-0.6-0.4-1.2-0.8-1.7c-0.3-0.5-0.7-0.8-1.3-1.1c-0.5-0.3-1.2-0.4-1.9-0.4c-0.7,0-1.3,0.1-1.8,0.4c-0.5,0.3-1,0.6-1.3,1.1
		c-0.3,0.5-0.6,1-0.7,1.7c-0.2,0.7-0.2,1.7-0.2,3.1c0,1.4,0.1,2.4,0.2,3.1c0.1,0.7,0.4,1.2,0.7,1.7c0.3,0.4,0.8,0.7,1.3,1
		c0.6,0.3,1.2,0.4,1.8,0.4c0.7,0,1.3-0.1,1.9-0.4c0.6-0.3,1-0.6,1.3-1c0.4-0.5,0.6-1.1,0.8-1.7C286.1,224.1,286.1,223,286.1,221.7z"
		/>
	<path d="M315.9,229.6c-1.3,1.5-3,2.3-5,2.3c-1.2,0-2.2-0.3-3-0.8c-0.9-0.5-1.6-1.1-2.2-1.9c-0.5-0.6-0.9-1.5-1.1-2.6
		c-0.2-1-0.3-2.7-0.3-5.1c0-2.4,0.1-4.1,0.3-5.1c0.2-1,0.5-1.9,1.1-2.5c1.1-1.7,2.8-2.5,5.2-2.6c1,0,1.9,0.2,2.8,0.6
		c0.8,0.4,1.5,1,2.3,1.7v-10.2h3.9v28.2h-3.9V229.6z M312,215.4c-0.9,0-1.6,0.2-2.1,0.5c-0.5,0.3-0.9,0.8-1.2,1.4
		c-0.2,0.6-0.4,1.3-0.5,2c-0.1,0.8-0.1,1.5-0.1,2.3c0,0.8,0,1.5,0.1,2.2c0.1,0.8,0.2,1.4,0.5,2.1c0.2,0.6,0.6,1.1,1.2,1.4
		c0.5,0.4,1.2,0.5,2.1,0.5s1.7-0.2,2.2-0.6c0.5-0.4,0.9-0.9,1.1-1.5c0.2-0.6,0.4-1.3,0.5-2c0-0.7,0-1.5,0-2.2c0-0.8,0-1.5,0-2.2
		c-0.1-0.7-0.3-1.4-0.5-2c-0.2-0.6-0.6-1.1-1.1-1.5C313.7,215.6,313,215.4,312,215.4z"/>
	<path d="M327.7,223.2c0,1.6,0.4,2.8,1.3,3.7c0.8,0.8,1.9,1.3,3.3,1.3c1.6,0,3-0.7,4.3-2l2.8,2.5c-2,2.2-4.3,3.3-7,3.2
		c-1,0-2-0.2-3-0.5c-0.5-0.2-1-0.4-1.4-0.7c-0.5-0.2-0.9-0.5-1.4-0.9c-0.8-0.7-1.5-1.8-2-3.1c-0.6-1.3-0.8-3-0.8-5
		c0-2,0.2-3.6,0.7-4.9c0.5-1.3,1.1-2.4,1.9-3.2c0.8-0.8,1.6-1.4,2.6-1.7c0.9-0.3,1.9-0.5,2.8-0.5c2.2,0,4.1,0.8,5.6,2.3
		c1.6,1.5,2.4,3.6,2.4,6.2v3.3H327.7z M335.9,219.9c0-1.6-0.5-2.8-1.2-3.6c-0.8-0.8-1.7-1.1-2.9-1.1c-1.2,0-2.1,0.4-2.9,1.1
		c-0.7,0.8-1.1,2-1.2,3.6H335.9z"/>
	<path d="M344.6,203.5h3.9v23c0,0.9,0.5,1.4,1.5,1.4h1.4v3.8h-1.7c-1.4,0-2.6-0.4-3.5-1.1c-1-0.7-1.5-2-1.5-3.8V203.5z"/>
	<path d="M354.8,203.5h3.9v23c0,0.9,0.5,1.4,1.5,1.4h1.4v3.8h-1.7c-1.4,0-2.6-0.4-3.5-1.1c-1-0.7-1.5-2-1.5-3.8V203.5z"/>
	<path d="M375.2,229.9L375.2,229.9c-0.4,0.7-1,1.2-1.8,1.5c-0.7,0.3-1.8,0.5-3.1,0.5c-2.2,0-3.8-0.6-5-1.8c-1.2-1.1-1.9-2.6-1.9-4.3
		c0-1.7,0.5-3.1,1.6-4.2c1.1-1.1,2.6-1.7,4.7-1.7h5.4v-2.1c0-1.8-1.3-2.6-4-2.6c-1,0-1.7,0.1-2.3,0.3c-0.6,0.2-1,0.7-1.4,1.2
		l-3.1-2.4c1.5-2,3.7-3,6.6-2.9c2.4,0,4.4,0.5,5.9,1.4c1.5,1,2.2,2.7,2.2,5.2v13.7h-3.9V229.9z M375.2,223.2h-4.7
		c-2.3,0.1-3.4,0.9-3.4,2.4c0,0.7,0.3,1.3,0.9,1.7c0.6,0.5,1.5,0.8,2.8,0.8c1.6,0,2.8-0.2,3.5-0.6c0.6-0.4,0.9-1.4,0.9-2.9V223.2z"
		/>
	<path d="M394.6,203.5h9.5c3.7,0,6.5,1.6,8.3,4.8c0.7,1.1,1.1,2.2,1.3,3.3c0.1,1.2,0.2,3.2,0.2,6c0,3-0.1,5.1-0.3,6.3
		c-0.1,0.6-0.2,1.1-0.4,1.6c-0.2,0.5-0.5,0.9-0.8,1.4c-0.8,1.3-1.9,2.4-3.3,3.3c-1.4,0.9-3.1,1.4-5.2,1.4h-9.3V203.5z M398.7,227.7
		h4.9c2.3,0,4-0.8,5.1-2.5c0.5-0.6,0.8-1.4,0.9-2.3c0.1-0.9,0.2-2.6,0.2-5.1c0-2.5-0.1-4.2-0.2-5.3c-0.1-1.1-0.5-1.9-1.1-2.6
		c-1.1-1.6-2.8-2.4-4.9-2.4h-4.9V227.7z"/>
	<path d="M418.2,221.6c0-2.1,0.2-3.7,0.5-4.9c0.3-1.1,0.9-2,1.6-2.8c0.5-0.7,1.3-1.3,2.2-1.8c0.9-0.5,2.2-0.8,3.6-0.8
		c1.5,0,2.8,0.3,3.7,0.8c0.9,0.5,1.7,1.1,2.2,1.8c0.8,0.8,1.3,1.7,1.6,2.8c0.3,1.1,0.5,2.8,0.5,4.9s-0.2,3.7-0.5,4.8
		c-0.3,1.1-0.9,2.1-1.6,2.9c-0.2,0.3-0.6,0.6-0.9,0.9c-0.3,0.3-0.7,0.6-1.3,0.8c-0.9,0.6-2.2,0.8-3.7,0.9c-1.5,0-2.7-0.3-3.6-0.9
		c-1-0.5-1.7-1.1-2.2-1.7c-0.7-0.8-1.3-1.8-1.6-2.9C418.4,225.4,418.2,223.8,418.2,221.6z M430.3,221.7c0-1.4-0.1-2.5-0.2-3.1
		c-0.1-0.6-0.4-1.2-0.8-1.7c-0.3-0.5-0.7-0.8-1.3-1.1c-0.5-0.3-1.2-0.4-1.9-0.4c-0.7,0-1.3,0.1-1.8,0.4c-0.5,0.3-1,0.6-1.3,1.1
		c-0.3,0.5-0.6,1-0.7,1.7c-0.1,0.7-0.2,1.7-0.2,3.1c0,1.4,0.1,2.4,0.2,3.1c0.1,0.7,0.4,1.2,0.7,1.7c0.3,0.4,0.8,0.7,1.3,1
		c0.6,0.3,1.2,0.4,1.8,0.4c0.7,0,1.3-0.1,1.9-0.4c0.6-0.3,1-0.6,1.3-1c0.4-0.5,0.6-1.1,0.8-1.7C430.2,224.1,430.3,223,430.3,221.7z"
		/>
	<path d="M439.2,205.5h3.9v6.1h2.8v3.1h-2.8v11.7c0,1,0.4,1.5,1.4,1.5h1.5v3.8h-2c-1.4,0-2.5-0.4-3.4-1.3c-0.9-0.8-1.3-2-1.3-3.6
		v-12h-2v-3.1h2V205.5z"/>
	<path d="M450.2,205.5h3.9v6.1h2.8v3.1H454v11.7c0,1,0.4,1.5,1.4,1.5h1.5v3.8h-2c-1.4,0-2.5-0.4-3.4-1.3c-0.9-0.8-1.3-2-1.3-3.6v-12
		h-2v-3.1h2V205.5z"/>
	<path d="M461,227.7h3.9v4H461V227.7z"/>
	<path d="M471,225.6c1.6,1.7,3.6,2.6,6.2,2.6c1.1,0,2-0.2,2.8-0.7c0.7-0.5,1.1-1.1,1.1-1.9c0-0.7-0.2-1.2-0.6-1.5
		c-0.4-0.3-1-0.5-1.7-0.5l-3.4-0.3c-1.6-0.2-3-0.7-4-1.7c-1-1-1.6-2.3-1.6-4c0-2.1,0.7-3.6,2.1-4.6c1.3-1,3.1-1.5,5.1-1.5
		c0.9,0,1.7,0.1,2.4,0.2c0.7,0.1,1.4,0.3,2,0.5c1.2,0.5,2.3,1.2,3.2,2L482,217c-0.7-0.6-1.5-1-2.4-1.4c-0.8-0.3-1.8-0.5-2.9-0.5
		c-1.2,0-2.1,0.2-2.6,0.7c-0.5,0.5-0.8,1-0.8,1.7c0,0.5,0.2,0.8,0.6,1.2c0.4,0.4,1,0.6,2,0.7l3.2,0.3c2,0.2,3.5,0.8,4.4,1.9
		c0.8,1.1,1.3,2.5,1.3,4.1c0,1.9-0.8,3.4-2.3,4.5c-1.5,1.1-3.4,1.6-5.7,1.7c-3.2,0-6-1.2-8.6-3.6L471,225.6z"/>
	<path d="M489.9,225.6c1.6,1.7,3.6,2.6,6.2,2.6c1.1,0,2-0.2,2.8-0.7c0.7-0.5,1.1-1.1,1.1-1.9c0-0.7-0.2-1.2-0.6-1.5
		c-0.4-0.3-1-0.5-1.7-0.5l-3.4-0.3c-1.6-0.2-3-0.7-4-1.7c-1-1-1.6-2.3-1.6-4c0-2.1,0.7-3.6,2.1-4.6c1.3-1,3.1-1.5,5.1-1.5
		c0.9,0,1.7,0.1,2.4,0.2c0.7,0.1,1.4,0.3,2,0.5c1.2,0.5,2.3,1.2,3.2,2L501,217c-0.7-0.6-1.5-1-2.4-1.4c-0.8-0.3-1.8-0.5-2.9-0.5
		c-1.2,0-2.1,0.2-2.6,0.7c-0.5,0.5-0.8,1-0.8,1.7c0,0.5,0.2,0.8,0.6,1.2c0.4,0.4,1,0.6,2,0.7l3.2,0.3c2,0.2,3.5,0.8,4.4,1.9
		c0.8,1.1,1.3,2.5,1.3,4.1c0,1.9-0.8,3.4-2.3,4.5c-1.5,1.1-3.4,1.6-5.7,1.7c-3.2,0-6-1.2-8.6-3.6L489.9,225.6z"/>
	<path d="M518.6,229.9L518.6,229.9c-0.4,0.7-1,1.2-1.8,1.5c-0.7,0.3-1.8,0.5-3.1,0.5c-2.2,0-3.8-0.6-5-1.8c-1.2-1.1-1.9-2.6-1.9-4.3
		c0-1.7,0.5-3.1,1.6-4.2c1.1-1.1,2.6-1.7,4.7-1.7h5.4v-2.1c0-1.8-1.3-2.6-4-2.6c-1,0-1.7,0.1-2.3,0.3c-0.6,0.2-1,0.7-1.4,1.2
		l-3.1-2.4c1.5-2,3.7-3,6.6-2.9c2.4,0,4.4,0.5,5.9,1.4c1.5,1,2.2,2.7,2.2,5.2v13.7h-3.9V229.9z M518.6,223.2h-4.7
		c-2.3,0.1-3.4,0.9-3.4,2.4c0,0.7,0.3,1.3,0.9,1.7c0.6,0.5,1.5,0.8,2.8,0.8c1.6,0,2.8-0.2,3.5-0.6c0.6-0.4,0.9-1.4,0.9-2.9V223.2z"
		/>
	<path d="M538,203.5h3.9l7.8,18.4l7.7-18.4h3.9v28.2h-4.1v-17.6H557l-5.7,13.5h-3.4l-5.7-13.5h-0.1v17.6H538V203.5z"/>
	<path d="M566.6,221.6c0-2.1,0.2-3.7,0.5-4.9c0.3-1.1,0.9-2,1.6-2.8c0.5-0.7,1.3-1.3,2.2-1.8c0.9-0.5,2.2-0.8,3.6-0.8
		c1.5,0,2.8,0.3,3.7,0.8c0.9,0.5,1.7,1.1,2.2,1.8c0.8,0.8,1.3,1.7,1.6,2.8c0.3,1.1,0.5,2.8,0.5,4.9s-0.2,3.7-0.5,4.8
		c-0.3,1.1-0.9,2.1-1.6,2.9c-0.2,0.3-0.6,0.6-0.9,0.9c-0.3,0.3-0.7,0.6-1.3,0.8c-0.9,0.6-2.2,0.8-3.7,0.9c-1.5,0-2.7-0.3-3.6-0.9
		c-1-0.5-1.7-1.1-2.2-1.7c-0.7-0.8-1.3-1.8-1.6-2.9C566.8,225.4,566.6,223.8,566.6,221.6z M578.8,221.7c0-1.4-0.1-2.5-0.2-3.1
		c-0.1-0.6-0.4-1.2-0.8-1.7c-0.3-0.5-0.7-0.8-1.3-1.1c-0.5-0.3-1.2-0.4-1.9-0.4c-0.7,0-1.3,0.1-1.8,0.4c-0.5,0.3-1,0.6-1.3,1.1
		c-0.3,0.5-0.6,1-0.7,1.7c-0.1,0.7-0.2,1.7-0.2,3.1c0,1.4,0.1,2.4,0.2,3.1c0.1,0.7,0.4,1.2,0.7,1.7c0.3,0.4,0.8,0.7,1.3,1
		c0.6,0.3,1.2,0.4,1.8,0.4c0.7,0,1.3-0.1,1.9-0.4c0.6-0.3,1-0.6,1.3-1c0.4-0.5,0.6-1.1,0.8-1.7C578.7,224.1,578.8,223,578.8,221.7z"
		/>
	<path d="M587.4,211.6h3.9v2.1h0.1c1.3-1.6,3-2.4,5-2.4c1.6,0,3.1,0.6,4.4,1.8c1.3,1.2,2,2.9,2.1,5.2v13.3H599v-12
		c0-1.4-0.4-2.5-1.1-3.2c-0.7-0.7-1.6-1.1-2.8-1.1c-1.1,0-2,0.4-2.8,1.1c-0.7,0.7-1.1,1.8-1.1,3.2v12h-3.9V211.6z"/>
	<path d="M608.8,203.5h3.9v4h-3.9V203.5z M608.8,211.6h3.9v20h-3.9V211.6z"/>
	<path d="M632.4,228.5c-0.8,1-1.8,1.8-3,2.4c-1.1,0.7-2.5,1-4,1c-2.3,0-4.3-0.8-6-2.4c-1.8-1.6-2.7-4.2-2.8-7.8c0-3.6,1-6.3,2.8-7.9
		c1.7-1.6,3.7-2.4,6-2.4c1.5,0,2.8,0.3,4,1c1.1,0.6,2.1,1.5,3,2.5l-2.9,2.6c-1-1.4-2.3-2.1-3.9-2.1c-3.3-0.1-5,2-5.1,6.3
		c0,4.2,1.7,6.3,5.1,6.2c1.6,0,3-0.7,3.9-2.1L632.4,228.5z"/>
	<path d="M645.9,229.9L645.9,229.9c-0.4,0.7-1,1.2-1.8,1.5c-0.7,0.3-1.8,0.5-3.1,0.5c-2.2,0-3.8-0.6-5-1.8c-1.2-1.1-1.9-2.6-1.9-4.3
		c0-1.7,0.5-3.1,1.6-4.2c1.1-1.1,2.6-1.7,4.7-1.7h5.4v-2.1c0-1.8-1.3-2.6-4-2.6c-1,0-1.7,0.1-2.3,0.3c-0.6,0.2-1,0.7-1.4,1.2
		l-3.1-2.4c1.5-2,3.7-3,6.6-2.9c2.4,0,4.4,0.5,5.9,1.4c1.5,1,2.2,2.7,2.2,5.2v13.7h-3.9V229.9z M645.9,223.2h-4.7
		c-2.3,0.1-3.4,0.9-3.4,2.4c0,0.7,0.3,1.3,0.9,1.7c0.6,0.5,1.5,0.8,2.8,0.8c1.6,0,2.8-0.2,3.5-0.6c0.6-0.4,0.9-1.4,0.9-2.9V223.2z"
		/>
	<path d="M674.1,216.2h9.7v5.7c0,2.8-1,5.2-2.8,7.1c-1.8,1.9-4.1,2.9-6.9,2.9c-2.1-0.1-3.9-0.6-5.4-1.6c-1.5-1-2.5-2.1-3.2-3.4
		c-0.2-0.4-0.4-0.8-0.5-1.2c-0.1-0.4-0.3-0.9-0.4-1.5c-0.2-1.1-0.3-3.3-0.3-6.5c0-3.3,0.1-5.5,0.3-6.6c0.2-1.1,0.5-2,0.9-2.7
		c0.7-1.3,1.7-2.5,3.2-3.5c1.4-1,3.2-1.6,5.4-1.6c2.6,0,4.8,0.8,6.4,2.4c1.7,1.6,2.7,3.6,3.1,5.9h-4.4c-0.3-1.1-0.9-2.1-1.8-2.9
		c-0.9-0.8-2-1.2-3.4-1.2c-1,0-1.8,0.2-2.5,0.6c-0.7,0.4-1.3,0.9-1.7,1.5c-0.5,0.6-0.9,1.4-1.1,2.3c-0.2,1-0.3,2.9-0.3,5.7
		s0.1,4.7,0.3,5.6c0.2,1,0.5,1.8,1.1,2.4c0.4,0.6,1,1.1,1.7,1.4c0.7,0.4,1.5,0.6,2.5,0.6c1.6,0,2.9-0.6,4-1.7c1-1.1,1.6-2.5,1.6-4.3
		v-1.5h-5.6V216.2z"/>
	<path d="M689.2,203.5h3.9v4h-3.9V203.5z M689.2,211.6h3.9v20h-3.9V211.6z"/>
	<path d="M697.3,228.5l9.7-13.3h-9.5v-3.6h14.3v3.2l-10,13.1h10v3.8h-14.5V228.5z"/>
	<path d="M714.8,228.5l9.7-13.3h-9.5v-3.6h14.3v3.2l-10,13.1h10v3.8h-14.5V228.5z"/>
	<path d="M733.8,203.5h3.9v4h-3.9V203.5z M733.8,211.6h3.9v20h-3.9V211.6z"/>
</g>
</svg>
